<svg xmlns="http://www.w3.org/2000/svg" width="900" height="440" viewBox="0 0 900 440">
<rect width="900" height="440" fill="#faf7ef"/>
<g font-family="Georgia,serif" fill="#253137">
<text x="40" y="30" font-size="20">Visit order: SUPPORT LONG</text>
<text x="40" y="53" font-size="12">Descriptive diagnostic; not a trading signal. No uncertainty interval shown.</text>
<line x1="70" y1="330.00" x2="730" y2="330.00" stroke="#d4d4c8"/>
<text x="8" y="334.00" font-size="12">0.316</text>
<line x1="70" y1="270.00" x2="730" y2="270.00" stroke="#d4d4c8"/>
<text x="8" y="274.00" font-size="12">0.368</text>
<line x1="70" y1="210.00" x2="730" y2="210.00" stroke="#d4d4c8"/>
<text x="8" y="214.00" font-size="12">0.419</text>
<line x1="70" y1="150.00" x2="730" y2="150.00" stroke="#d4d4c8"/>
<text x="8" y="154.00" font-size="12">0.470</text>
<line x1="70" y1="90.00" x2="730" y2="90.00" stroke="#d4d4c8"/>
<text x="8" y="94.00" font-size="12">0.521</text>
<polyline points="70.00,188.35 143.33,249.24 216.67,132.98 290.00,160.35 363.33,201.37 436.67,136.20 510.00,159.94 583.33,214.17 656.67,177.04 730.00,191.77" fill="none" stroke="#15616d" stroke-width="2"/>
<text x="40" y="395" font-size="12" fill="#15616d">SUPPORT LONG visit 1</text>
<polyline points="70.00,243.09 143.33,217.17 216.67,162.37 290.00,169.94 363.33,240.72 436.67,161.53 510.00,158.81 583.33,247.07 656.67,169.78 730.00,208.03" fill="none" stroke="#b24c32" stroke-width="2"/>
<text x="320" y="395" font-size="12" fill="#b24c32">SUPPORT LONG visit 2</text>
<polyline points="70.00,231.38 143.33,203.26 216.67,310.00 290.00,182.97 363.33,168.73 436.67,159.94 510.00,236.19 583.33,110.00 656.67,257.77 730.00,209.31" fill="none" stroke="#6a753b" stroke-width="2"/>
<text x="600" y="395" font-size="12" fill="#6a753b">SUPPORT LONG visit 3</text>
<polyline points="70.00,193.11 143.33,192.88 216.67,169.71 290.00,191.03 363.33,185.40 436.67,173.44 510.00,177.27 583.33,172.37 656.67,184.03 730.00,218.20" fill="none" stroke="#74617d" stroke-width="2"/>
<text x="40" y="413" font-size="12" fill="#74617d">SUPPORT LONG visit 4+</text>
<text x="70.00" y="350" text-anchor="middle" font-size="11">1</text>
<text x="143.33" y="350" text-anchor="middle" font-size="11">2</text>
<text x="216.67" y="350" text-anchor="middle" font-size="11">3</text>
<text x="290.00" y="350" text-anchor="middle" font-size="11">4</text>
<text x="363.33" y="350" text-anchor="middle" font-size="11">5</text>
<text x="436.67" y="350" text-anchor="middle" font-size="11">6</text>
<text x="510.00" y="350" text-anchor="middle" font-size="11">7</text>
<text x="583.33" y="350" text-anchor="middle" font-size="11">8</text>
<text x="656.67" y="350" text-anchor="middle" font-size="11">9</text>
<text x="730.00" y="350" text-anchor="middle" font-size="11">10</text>
<text x="300" y="375" font-size="13">Historical delta decile</text></g><text id="metric-label" x="70" y="75" font-family="Georgia,serif" font-size="11" fill="#253137">Y: Event-balanced TP-first fraction</text></svg>